<?xml version="1.0" encoding="UTF-8"?>
<svg id="_레이어_1" data-name="레이어_1" xmlns="http://www.w3.org/2000/svg" version="1.1" viewBox="0 0 479.33 369.67">
  <!-- Generator: Adobe Illustrator 29.0.1, SVG Export Plug-In . SVG Version: 2.1.0 Build 192)  -->
  <defs>
    <style>
      .st0 {
        fill: #030303;
      }

      .st1 {
        fill: #020202;
      }
    </style>
  </defs>
  <path class="st0" d="M282.9,221.7c12.61,10.63,11.35,28.46-.9,38.63-4.03,3.34-7.76,3.9-11.42,5.82-6.28,3.28-9.15,6.14-8.88,7.64.68,3.65,14.04,14.16,17.18,17.34,12.18,12.32,37.34,36.93,37.94,54.64.75,21.84-28.26,22.15-41.32,10.75-4.6-4.02-10.96-10.35-15.43-14.55-5.45-5.11-9.83-10.63-14.66-15.44-2.16-2.15-15.77-15.39-16.91-15.59-2.44-.43-12.99,14.92-15.83,17.49-4.23,3.83-3.19,2.75-6.72,5.98-4.98,4.56-31.66,20.54-38.98,24.03-6.54,3.12-21.54,9.9-28.2,10.2-6.74.3-17.88-4.4-21.96-10.03-.92-1.27-1.22-1.36-1.68-2.33-.42-.88-.94-2.14-1.15-2.87-3.33-11.51,1.51-25.11,12.06-30.96s22.7-8.42,32.43-15.59c4.06-2.99,7.3-5.74,12.27-10.11l19.98-19.89-12.83-9.88c-3.23-2.48-6.06-5.45-8.3-8.85-1.16-1.77-2.18-3.65-3.56-6.56-.35-.75-1.43-2.82-1.91-4.16-1.32-3.77-.7-11.25.94-14.88.67-1.47,6.43-8.25,7.71-9.31,5.78-4.76,37.25-10.54,46.15-11.67,18.68-2.36,48.86-2.6,63.98,10.15Z"/>
  <path class="st1" d="M106.39,206.85c-1.75,1.69-2.43,3.42-4.95,5.39-13.43,10.53-37.86,18.58-54.3,13.28-3.15-1.02-15.4-8.07-17.49-10.1-12.38-12-25.22-42.09-26-59.61-.88-19.62,14.79-49.85,33.09-58.44,18.87-8.85,62.84-7.86,77.59,8.82,22.55,25.51,15.33,78.14-7.94,100.65Z"/>
  <path class="st1" d="M382.39,6.1c10.15,6.46,16.03,27.46,21.33,38.21,1.29,2.63,7.47,14.51,9,15.61,3.19,2.27,10.4-.2,14.82-.06,15.4.47,38.43,7.73,42.59,24.38,5.83,23.33-10.71,38.34-33.64,33.63-33.05-6.79-50.35-13.61-85.72-10.76-13.8,1.11-34.25,7.41-45.23-5-21.21-23.98,13.93-50.43,37.83-46.19-4.64-12.88-1.55-30.01,5.97-42.48.21-.34,3.88-5.24,4.14-5.49,4.64-4.5,12.08-5.96,14.02-5.94,4.09.03,11.41,1.88,14.9,4.1Z"/>
  <path class="st0" d="M405.04,119.31c27.54,11.9,44.85,48.17,33.57,77.57-19.16,49.91-107.69,29.71-113.49-21.84-3.1-27.55,7.82-51.39,35.93-58.64,17.05-4.4,27.79-4.1,44,2.91Z"/>
</svg>